<svg xmlns="http://www.w3.org/2000/svg" version="1.1" xmlns:xlink="http://www.w3.org/1999/xlink" width="512" height="512" x="0" y="0" viewBox="0 0 24 24" style="enable-background:new 0 0 512 512" xml:space="preserve" class=""><g><path d="M11 19a8 8 0 1 1 8-8 8.009 8.009 0 0 1-8 8zm0-14a6 6 0 1 0 6 6 6.006 6.006 0 0 0-6-6z" fill="#FFFAFA" opacity="1" data-original="#000000" class=""></path><path d="M20 21a1 1 0 0 1-.707-.293l-4-4a1 1 0 0 1 1.414-1.414l4 4A1 1 0 0 1 20 21z" fill="#FFFAFA" opacity="1" data-original="#000000" class=""></path></g></svg>